<svg width="256pt" height="256pt" version="1.0" viewBox="0 0 256 256" xmlns="http://www.w3.org/2000/svg"><g transform="translate(0 256) scale(.1 -.1)" fill="currentColor"><path d="m31 2536c-7-8-11-37-9-68 3-46 6-53 26-56s22 1 22 37v41h69c82 0 101 6 101 30 0 25-19 30-115 30-59 0-86-4-94-14z"/><path d="m712 2517c-35-36-57-96-47-127 9-29-6-25-61 15-80 56-131 78-162 67-40-13-38-41 5-91 59-70 137-96 211-70 28 9 35 7 66-17l35-28-32-14c-18-8-60-15-95-15-79 0-166 41-246 114-52 47-84 59-93 33-2-5 16-35 40-66 82-106 113-216 84-301-8-25-33-70-55-99s-54-80-72-113c-41-74-54-85-102-85-55 0-104 24-122 59-22 41-20 72 7 112 23 35 36 40 147 58 80 13 119 46 127 111 11 82-51 148-129 137-50-7-77-29-59-50 9-12 19-13 47-4 29 9 38 8 62-10 58-43 25-133-50-133-32 0-80-10-125-24l-23-7-2 193c-3 185-4 193-23 193s-20-9-28-240c-4-132-8-263-10-292-1-39 3-58 19-80 33-44 91-73 150-73h52l-15-41c-44-129-62-318-43-465 47-374 257-677 600-863l71-38-39-5c-22-3-55-13-75-23-47-22-114-91-129-132-9-26-18-33-38-33-24 0-26 3-22 33 5 48-37 97-84 97-31 0-34 2-34 31 0 45-37 103-81 128-21 12-67 27-101 32-35 6-76 18-92 27-78 45-97 140-44 214 9 13 9 20-1 32-18 22-37 10-61-38-37-77-22-163 38-220l31-29-34-38c-36-40-55-91-55-151 0-44 15-51 55-28 17 10 45 21 62 25 63 13 122 95 93 130-17 20-37 9-44-25-5-30-35-51-88-64-26-6-26-5-15 29 15 51 48 77 104 82 68 7 126-11 158-49 23-27 26-39 22-73-11-76-92-119-152-79-28 18-45 12-45-17 0-11 11-24 27-32 25-11 18-13-67-17-87-5-95-7-95-25 0-20 8-20 309-23 318-2 347 1 314 35-15 14-15 20-3 42 68 132 269 150 365 33 17-20 30-40 30-44 0-20-45-4-73 26-62 65-155 66-214 2-38-42-45-86-13-86 12 0 24 10 30 24 19 50 100 74 143 42 17-13 17-15 2-24-10-5-15-18-13-28 3-17 14-19 94-22 115-3 125 5 94 75-12 26-33 61-48 77l-27 29 35-7c19-4 54-9 77-13 33-4 43-10 47-30 4-13 22-40 40-61 19-20 35-46 37-57 5-26 37-32 46-8 4 10 22 38 41 63 19 24 38 54 42 66 7 17 22 24 73 33 35 6 67 11 70 11 4 0-9-20-28-45-39-52-56-112-34-126 16-10 219-12 243-3 17 7 22 43 6 45-5 1-14 3-20 4-5 1-24 3-42 4-30 1-31 2-12 16 45 34 119 11 147-45 17-33 41-32 45 2 2 19-6 37-30 63-61 67-153 65-218-5-25-27-40-35-53-31-16 6-15 10 12 47 74 103 233 113 329 21 49-47 57-65 37-87-9-10-14-24-10-29 4-8 111-11 326-11h320l-3 23c-3 21-8 22-96 25l-92 3 27 23c23 20 25 26 14 40-12 14-16 14-42 1-62-33-127-7-149 59-25 77 45 145 150 146 70 0 117-34 135-98 6-21 4-22-22-16-42 10-72 32-86 62-16 36-29 44-46 28-11-11-11-21-1-50 13-39 50-71 96-82 16-3 44-15 61-26 18-11 37-17 43-13 15 9 12 91-6 133-8 20-29 51-45 68l-30 31 25 17c39 25 66 87 66 148 0 60-26 121-54 126-32 6-39-13-17-49 26-42 27-110 4-151-23-38-73-64-155-78-106-19-160-66-174-153-6-34-9-37-39-37-47 0-89-50-82-97 5-30 3-33-18-33-18 0-29 9-41 33-44 86-112 141-195 155l-44 8 65 33c195 100 374 274 480 466 137 250 169 582 80 841-11 31-20 59-20 61 0 1 21 3 48 3 54 0 114 30 146 73 20 27 20 38 17 320-3 293-7 321-38 295-10-8-13-59-13-204v-193l-35 15c-19 8-63 17-97 21-46 5-68 12-86 30-31 31-27 79 10 106 24 18 33 19 62 10 28-9 38-8 47 4 18 21-9 43-59 50-78 11-140-55-129-137 8-65 47-98 127-111 111-18 124-23 147-58 55-82-2-171-110-171-53 0-65 10-107 85-18 33-47 81-65 106-54 76-68 110-69 169 0 76 28 150 86 227 76 102 44 130-48 43-75-71-167-112-248-112-34 0-74 6-89 13l-27 14 35 28c28 23 38 25 60 17 67-26 150 2 208 70 43 51 47 77 13 90-33 12-85-4-132-41-22-17-52-38-68-46-28-15-29-15-22 10 10 41-5 86-39 123-35 37-62 44-72 18-4-10 6-26 26-44 75-69 10-195-92-176-36 7-67 36-110 103-66 104-179 137-275 82-43-24-63-24-115 3-97 50-200 17-274-89-61-86-77-98-135-98-42 0-53 4-74 28-36 41-33 96 7 142 31 34 34 65 6 65-7 0-28-15-45-33zm503-67c22-18-3-50-40-50-16 0-66-9-110-19-44-11-82-18-84-16s17 25 41 50c28 30 56 49 78 54 39 8 93-1 115-19zm305-5c19-12 44-37 54-55 19-33 19-33 0-26-29 11-135 34-173 38-38 3-63 30-44 49 15 15 73 27 103 22 14-3 41-15 60-28zm-990-55c19-16 30-29 25-30-6 0-26 13-45 30-19 16-30 29-25 30 6 0 26-13 45-30zm1520 0c-19-17-39-30-45-30-5 1 6 14 25 30 19 17 39 30 45 30 5-1-6-14-25-30zm-719-56c30-90 32-137 9-167-25-32-73-36-102-10-23 21-24 89-2 164 20 68 18 65 51 64 24-1 30-8 44-51zm-145 0c-3-9-9-33-12-54-6-36-9-39-48-45-105-18-290-91-370-148-19-13-46-21-78-21-50-1-50-1-117 73-37 42-57 72-46 67 43-16 122-26 160-20 22 3 81 24 130 46 106 48 175 73 270 98 90 24 119 25 111 4zm316-4c81-20 211-71 291-113 63-34 137-42 207-23 30 8 56 14 57 12 1-1-24-30-56-65-55-62-60-65-106-67-42-1-61 5-125 42-91 53-179 86-286 109l-80 18-10 53c-12 64-12 64 108 34zm-323-175c11-20 34-44 51-53 37-21 38-32 5-32-46 0-177-31-243-57-35-14-97-47-137-74-86-56-99-51-100 33 0 48 2 52 40 78 82 56 210 108 316 129 24 5 45 9 46 10 0 1 10-15 22-34zm346 8c67-16 228-90 262-119 14-13 23-35 26-66 5-53 19-31-151-226-51-58-54-64-39-79 20-21 20-21 142 119l90 104h53c54 1 54 1 98-55 80-101 150-255 172-379 9-51 9-53-19-69-15-9-36-32-46-50-24-45-43-43-43 5 0 60-38 201-75 277-43 90-121 195-145 195-34 0-29-28 11-77 71-85 159-298 159-385 0-7-63 50-139 126-98 98-144 137-155 133-34-13-11-48 129-187l145-145-715-715-715 715 152 152c143 145 151 154 135 170-16 17-25 9-157-122s-140-138-140-109c0 95 87 294 168 384l50 55 43-50c24-27 56-63 70-79 17-19 31-27 42-23 29 11 19 31-48 108-36 40-65 76-65 79 0 18 162 106 246 134 60 19 154 36 154 27 0-4-47-53-105-111s-105-110-105-118c0-7 7-15 16-19 11-4 52 30 138 116l121 121 115-115c111-112 144-132 157-99 4 11-27 49-103 125-105 105-108 109-74 103 98-17 163-38 245-79 102-51 118-55 113-23-2 15-24 33-73 60-91 49-170 75-272 90-46 7-83 14-83 18 0 3 15 12 32 21 17 8 40 32 51 52 21 41 11 40 132 10zm-995-64c50-58 53-64 51-110-2-42-10-59-57-121-91-122-149-251-176-392l-12-65-58-19-58-20v27c0 132 75 331 186 493 61 89 78 140 72 215-3 29-4 53-4 53 1 0 26-28 56-61zm1555 21c-11-64 11-142 61-214 119-175 183-329 208-499 4-34 3-38-12-31-9 4-35 13-58 21l-41 14-26 106c-32 129-96 262-172 357-43 55-55 78-56 108-1 21-2 43-3 49-1 9 94 128 102 129 2 0 1-18-3-40zm-164-100c25-14 25-56-1-70-45-24-86 44-42 69 21 13 20 13 43 1zm-1217-22c16-26-4-53-40-53-23 0-30 5-32 23-7 47 47 69 72 30zm-24-108c29 0 42-5 50-20 10-18 5-28-37-74-95-105-160-248-184-405-7-44-15-81-18-81s-12 14-20 31c-7 17-29 40-47 51-19 11-34 28-34 38 0 38 52 194 89 268 51 101 129 205 148 198 8-3 32-6 53-6zm-272-550c28-27 29-73 1-101-26-26-84-23-145 7-52 26-57 57-12 80 74 38 125 43 156 14zm1864 9c50-13 91-49 83-71-8-20-94-58-131-58-35 0-74 36-74 67 0 28 41 73 67 73 10 0 35-5 55-11zm-1763-170c26-171 90-304 206-427 68-73 69-75 38-69-18 4-62 9-98 13l-66 7-54 82c-60 90-104 187-129 286-21 87-21 91 14 111 17 10 38 31 48 48 9 16 20 30 23 30s11-37 18-81zm1606 51c8-16 29-37 45-45 33-17 33-9 3-130-25-102-89-232-154-316-26-33-34-37-94-43-36-4-80-9-98-13l-32-6 39 34c56 49 132 153 171 234 37 76 75 217 75 278 0 46 23 50 45 7zm-895-671c0-9-94 8-154 27-186 60-347 197-429 364-48 97-77 190-77 245 0 27 28 2 330-300 182-181 330-333 330-336zm781 559c-75-302-300-505-621-562-31-6-1 28 300 329 184 184 336 331 338 325 2-5-6-47-17-92zm-1693 57c25-5 32-12 32-29 0-78 72-267 143-379 20-31 36-60 35-65 0-4-25-12-55-18l-53-10-30 46c-78 121-143 301-156 428l-7 64 29-15c16-8 44-18 62-22zm2041-46c-21-140-86-307-160-415l-28-41-53 11c-29 5-55 11-57 13-2 1 15 32 38 67 58 89 107 204 132 313l21 91 42 11c22 6 48 15 56 20 8 6 16 9 18 7 1-2-3-37-9-77zm-1554-509c44-10 121-34 170-53 88-35 220-67 270-67 25 0 25-1 25-80 0-44-3-80-6-80s-32 21-65 46c-75 58-204 126-294 155-61 20-92 23-233 24l-163 1-25 31-25 32 23 5c58 13 78 14 158 10 47-2 121-13 165-24zm1268 21c26-4 50-11 54-15s-5-19-20-33c-26-27-27-27-184-28-152 0-161-1-253-33-107-38-175-74-268-144-35-27-68-46-73-43-5 4-9 39-9 79v72l85 12c47 7 122 26 168 43 232 86 370 111 500 90zm-1168-155c97-33 170-71 252-132 60-45 61-47 47-70l-16-23-66 51c-123 94-253 140-401 140-80 1-88 3-118 29-21 18-28 30-20 33 7 3 64 4 127 2 92-3 131-9 195-30zm1110 25c3-5-9-21-27-34-29-22-44-25-119-25-47 0-115-8-150-17-84-22-201-83-265-139l-51-45-12 25c-6 14-11 26-11 28 0 9 115 89 172 120 74 41 131 63 213 81 69 16 241 19 250 6zm-1109-139c77-27 178-85 205-119 12-14 10-15-21-8-80 17-201 60-282 101-49 24-88 46-88 49 0 16 115 1 186-23zm944 6c-86-53-240-111-350-133l-35-7 45 36c91 73 219 123 320 125l55 1-35-22zm-516-109c39-46 30-105-22-152-19-18-21-17-45 15-35 46-42 80-23 116 14 28 40 51 58 52 3 0 18-14 32-31zm-840-141c22-35-27-74-59-48-18 15-20 56-2 64 22 9 50 1 61-16zm1676 3c18-36-11-68-50-56-42 13-29 75 15 75 14 0 29-8 35-19zm-1800-51c0-5-12-10-27-9-25 0-26 1-8 9 27 12 35 12 35 0zm1890 0c12-8 9-10-12-10-16 0-28 5-28 10 0 13 20 13 40 0z"/><path d="m1917 1853c-14-14-6-35 33-84 53-67 108-183 124-261 10-52 16-64 34-66 19-3 22 1 22 30 0 83-78 259-152 343-40 45-49 51-61 38z"/><path d="m1226 1538c-21-6-56-28-76-48-49-49-64-112-58-246 5-120 28-171 95-211 85-49 212-27 260 46 19 27 23 48 23 106 0 69 1 73 25 79 30 8 95 63 95 81 0 26-22 27-48 2-38-35-61-45-123-53-61-7-109-33-134-70-17-26-14-54 5-54 5 0 24 15 42 34s43 37 56 41c21 6 22 4 22-65 0-61-3-74-24-95-34-34-104-43-152-19-68 34-79 59-82 197-3 139 8 175 67 214 64 43 166 19 187-45 15-48 30-60 50-40 29 29-7 102-65 133-39 19-118 26-165 13z"/><path d="m613 1832c-70-75-137-205-158-307-14-68-11-85 16-85 12 0 21 9 24 28 20 92 29 121 59 181 19 36 52 91 75 121 22 30 41 60 41 66 0 25-32 23-57-4z"/><path d="m1963 2543c-19-7-16-31 6-43 21-11 280-14 319-4 25 7 30 39 6 48-19 7-313 7-331-1z"/><path d="m2347 2543c-13-13-7-42 11-47 9-3 44-4 77-4l60 1 5-39c4-31 10-40 28-42 21-3 22 0 22 61 0 50-4 66-16 71-21 8-179 8-187-1z"/><path d="m275 2530c-4-6-1-17 5-25 10-12 45-15 175-15s165 3 175 15c6 8 9 19 5 25-9 14-351 14-360 0z"/><path d="m802 2480c-20-9-42-45-42-71 0-19 49-59 73-59 31 0 67 39 67 72 0 17-10 34-26 47-29 23-38 24-72 11zm40-72c-15-15-26-4-18 18 5 13 9 15 18 6s9-15 0-24z"/><path d="m1705 2465c-14-13-25-33-25-43 0-33 38-72 70-72s70 39 70 72c0 25-44 68-70 68-11 0-32-11-45-25zm63-47c-3-7-11-13-18-13s-15 6-17 13c-3 7 4 12 17 12s20-5 18-12z"/><path d="m234 2459c-8-14 21-43 35-35 19 12 13 46-8 46-11 0-23-5-27-11z"/><path d="m2284 2455c-4-9-2-21 4-27 15-15 44-1 40 19-4 23-36 29-44 8z"/><path d="m170 2377c-35-17-62-75-52-112s36-42 80-15c39 24 56 62 47 107-7 37-30 43-75 20zm11-80c-8-8-11-7-11 4 0 20 13 34 18 19 3-7-1-17-7-23z"/><path d="m2335 2369c-19-59 27-130 87-132 31-2 33 0 36 32 5 53-6 80-41 101-42 26-74 26-82-1zm69-55c10-25-1-29-14-5-6 12-7 21-1 21 5 0 12-7 15-16z"/><path d="m145 1898c-48-28-57-70-24-112 41-52 129-23 129 43 0 55-61 95-105 69zm55-63c0-9-7-18-16-22-18-7-39 11-30 26 11 17 46 13 46-4z"/><path d="m2365 1900c-32-12-48-38-47-71 1-44 28-69 72-69 46 0 70 25 70 72 0 52-49 87-95 68zm45-70c0-13-7-20-20-20s-20 7-20 20 7 20 20 20 20-7 20-20z"/><path d="m32 1641c-9-6-12-66-10-252 3-236 4-244 23-244s20 8 23 211l2 211 49-5c31-3 51 0 56 7 10 18-14 41-43 41-13 0-39 9-56 19-18 11-37 17-44 12z"/><path d="m2500 1633c-13-9-40-19-59-23-28-4-37-10-39-29-4-23-2-24 47-19l51 5 2-211c3-211 3-211 26-214l22-3-2 252c-2 160-7 254-13 256s-21-4-35-14z"/><path d="m20 1081c0-27 19-36 37-18s9 37-18 37c-12 0-19-7-19-19z"/><path d="m2504 1089c-8-14 21-43 35-35 6 4 11 16 11 27 0 21-34 27-46 8z"/><path d="m27 1023c-4-3-7-15-7-25 0-14 8-18 39-18 43 0 55 9 45 34-6 16-64 23-77 9z"/><path d="m2474 1015c-10-24 9-37 47-33 26 2 34 8 34 23 0 16-8 21-38 23-27 2-39-1-43-13z"/><path d="m27 953c-4-3-7-15-7-25 0-15 8-18 50-18 37 0 52 4 57 16 3 9 0 20-8 25-16 10-83 12-92 2z"/><path d="m2453 949c-23-23-2-39 47-39 52 0 69 12 50 35-15 18-81 20-97 4z"/><path d="m33 883c-18-7-16-40 3-47 31-12 101-6 114 9 21 25-5 45-59 44-25 0-52-3-58-6z"/><path d="m2427 883c-4-3-7-15-7-25 0-16 9-18 64-18 67 0 86 10 66 35-13 15-110 22-123 8z"/><path d="m22 788c3-22 8-23 83-23s80 1 83 23c3 21 1 22-83 22s-86-1-83-22z"/><path d="m2383 794c-9-24 15-34 88-34 46 0 70 4 79 15 21 26 0 35-81 35-64 0-81-3-86-16z"/><path d="m22 718c3-22 6-23 103-23 93 0 100 1 100 20s-8 20-103 23c-103 3-103 3-100-20z"/><path d="m2345 730c-4-6-1-17 5-25 9-11 36-15 100-15s91 4 100 15c22 27 0 35-100 35-58 0-101-4-105-10z"/><path d="m164 655c-10-25 9-37 57-33 36 2 44 7 44 23 0 17-8 20-48 23-36 2-49-1-53-13z"/><path d="m2304 655c-10-25 9-37 57-33 36 2 44 7 44 23 0 17-8 20-48 23-36 2-49-1-53-13z"/><path d="m132 588c-24-30 2-39 99-36 86 3 94 5 94 23s-8 20-91 23c-66 2-94-1-102-10z"/><path d="m2246 584c-11-29 7-35 105-32 86 3 94 5 94 23s-8 20-96 23c-83 2-97 0-103-14z"/><path d="m130 520c-18-11-4-40 20-40 13 0 20 7 20 19 0 22-21 33-40 21z"/><path d="m230 515c-21-26 0-35 80-35 57 0 79 4 83 14 10 25-16 36-84 36-46 0-70-4-79-15z"/><path d="m2187 524c-4-4-7-16-7-26 0-17 7-19 83-16 74 3 82 5 82 23s-8 20-75 23c-42 1-79 0-83-4z"/><path d="m2411 516c-16-19-6-36 20-36 15 0 20 6 17 22-4 27-21 33-37 14z"/><path d="m2113 453c-18-7-16-40 3-47 51-19 124 8 96 36-12 12-77 19-99 11z"/><path d="m2253 453c-7-3-13-13-13-23 0-19 17-30 38-23 6 3 12 13 12 23 0 19-17 30-37 23z"/><path d="m284 439c-8-14 21-43 35-35 6 4 11 16 11 27 0 21-34 27-46 8z"/><path d="m357 436c-9-23 18-37 65-34 36 2 44 7 46 26 3 20 0 22-51 22-38 0-57-4-60-14z"/></g></svg>
