<svg width="35" height="40" viewBox="0 0 35 40" fill="none" xmlns="http://www.w3.org/2000/svg"><path d="M12.8312 0.947762C15.4445 0.486825 18.0914 1.33536 19.9266 3.14376C20.3853 2.93959 20.8624 2.79321 21.3548 2.70646C24.8317 2.09308 28.141 4.4116 28.754 7.88747C29.1659 10.2236 28.2596 12.4682 26.5697 13.8906L26.7181 14.7321L28.2906 14.4548C30.8911 13.9961 33.3813 15.7392 33.84 18.3405L34.9492 24.6306C35.4078 27.2317 33.6647 29.7212 31.0635 30.1799L29.4911 30.4571L29.7684 32.0296C30.2271 34.631 28.4839 37.1203 25.8825 37.579L13.1939 39.7977C10.7722 40.2248 8.44987 38.7409 7.77102 36.4365L7.77295 36.4431L4.44855 17.7738C2.28593 16.5737 0.963649 15.1582 0.481694 13.5271L0.492265 13.5281C0.431907 13.3157 0.381342 13.0991 0.342487 12.8786C0.326429 12.7875 0.312395 12.6965 0.300352 12.6057C0.283274 12.4295 0.274383 12.2512 0.274383 12.0708C0.274383 11.8971 0.269508 11.7288 0.259757 11.566L0.251953 11.4654C0.370047 8.9812 1.94184 6.76746 4.25552 5.84053L4.89203 5.62388C5.73045 5.39337 6.55542 5.27811 7.36695 5.27811C7.38535 5.27811 7.38051 4.7772 7.78854 4.10009C8.0819 3.69939 8.41063 3.32778 8.77027 2.98951C8.84573 2.92573 8.92675 2.86205 9.01228 2.79846C9.01228 2.79846 9.00711 2.7938 8.99676 2.78448C10.0669 1.85189 11.3846 1.20282 12.8312 0.947762ZM19.6594 14.7158C18.5391 15.7132 17.121 16.4057 15.6043 16.6731C14.1189 16.9349 12.6031 16.7641 11.216 16.1931C10.2879 17.165 9.0774 17.824 7.74164 18.0595L10.7917 35.3572C10.9447 36.2242 11.7741 36.8048 12.6416 36.6524L25.3303 34.4337C26.1952 34.2813 26.7762 33.4514 26.6235 32.5842C25.9134 28.5576 24.1416 18.51 23.5733 15.2866C22.2333 15.523 20.8666 15.3157 19.6594 14.7158ZM30.695 18.8952C30.5421 18.0281 29.7122 17.4474 28.8452 17.5999L27.2728 17.8771L28.9365 27.3122L30.5089 27.035C31.3761 26.8821 31.9571 26.0523 31.8041 25.1853L30.695 18.8952ZM18.2618 6.10557C17.2067 4.57352 15.2471 3.76501 13.386 4.09289C11.5534 4.41607 10.0644 5.79867 9.59284 7.61527C9.48298 8.03821 9.20483 8.39759 8.82277 8.60964C8.44082 8.8218 7.98872 8.86821 7.57175 8.73824C7.05875 8.57824 6.55619 8.53992 6.07791 8.62412C4.3437 8.92996 3.18156 10.5895 3.4874 12.3237C3.79323 14.058 5.45314 15.2197 7.18703 14.9143C8.09922 14.7534 8.89782 14.186 9.37823 13.3575C9.83651 12.5672 10.8621 12.3232 11.6268 12.8177C12.656 13.4833 13.8715 13.7353 15.0497 13.5279C16.2705 13.3127 17.4219 12.6255 18.1297 11.6898C18.3933 11.3414 18.7883 11.1162 19.2225 11.0667C19.6567 11.0174 20.0921 11.1479 20.4273 11.4282C21.162 12.0425 22.1064 12.3022 23.0188 12.1416C24.7572 11.8351 25.9159 10.18 25.6092 8.44209C25.3028 6.70362 23.6478 5.54532 21.9097 5.85158C21.4316 5.93589 20.9723 6.14389 20.5448 6.46985C20.1974 6.7346 19.7569 6.84541 19.3252 6.77675C18.8939 6.70788 18.5095 6.46538 18.2618 6.10557Z" fill="#1D1D1D"/></svg>
